<svg width="46" height="46" viewBox="0 0 46 46" fill="none" xmlns="http://www.w3.org/2000/svg">
<path d="M23.1503 46C26.7582 46 29.8649 45.3987 32.671 44.2963C35.4771 43.0937 37.8824 41.5904 39.8867 39.4858C41.8911 37.4815 43.3943 35.0762 44.3965 32.2701C45.3987 29.5643 45.8998 26.6579 45.8998 23.451C36.4793 24.854 28.6623 30.8671 25.0545 38.9847C24.0523 41.1895 23.451 43.5948 23.1503 46.1002M0 23.3508C0 26.5577 0.501089 29.5643 1.50327 32.1699C2.50545 34.976 4.00871 37.3813 6.01307 39.3856C8.01743 41.39 10.4227 42.9935 13.2288 44.1961C16.0349 45.2985 19.2418 45.8998 22.7495 45.8998C22.4488 43.3943 21.7473 40.9891 20.8453 38.7843C17.2375 30.7669 9.42048 24.7538 0 23.3508ZM22.8497 0C19.2418 0 16.0349 0.601307 13.2288 1.7037C10.4227 2.90632 8.01743 4.40959 6.01307 6.51416C4.00871 8.51852 2.50545 10.9237 1.50327 13.7298C0.501089 16.5359 0 19.5425 0 22.7495C9.42048 21.3464 17.2375 15.3333 20.8453 7.21569C21.8475 4.91067 22.549 2.50545 22.8497 0ZM46 22.7495C46 19.5425 45.4989 16.5359 44.4967 13.7298C43.4946 10.9237 41.9913 8.51852 39.9869 6.51416C37.9826 4.5098 35.5773 2.90632 32.7712 1.7037C29.9651 0.601307 26.7582 0 23.1503 0C23.451 2.50545 24.1525 5.01089 25.1547 7.21569C28.7625 15.3333 36.5795 21.3464 46 22.7495Z" fill="#F39036"/>
</svg>
